{"title":"F.2010.BDRip.XVID.AC3.HQ.Hive-CM8","uid":6107819,"size":1537751840,"categoryP":"video","categoryS":"movies","magnet":"?xt=urn:btih:f0ad8f6d3018e593291bd4c3c090f25b650b8ff5&amp;dn=F.2010.BDRip.XVID.AC3.HQ.Hive-CM8&amp;tr=udp%3A%2F%2Ftracker.openbittorrent.com%3A80&amp;tr=udp%3A%2F%2Fopen.demonii.com%3A1337&amp;tr=udp%3A%2F%2Ftracker.coppersurfer.tk%3A6969&amp;tr=udp%3A%2F%2Fexodus.desync.com%3A6969","seeders":0,"leechers":1,"uploader":"TvTeam","files":6,"time":1295232413,"description":". \n  &lt;a href=&quot;\nhttp://www.torrentday.com/&quot; rel=&quot;nofollow&quot; target=&quot;_NEW&quot;&gt;\nhttp://www.torrentday.com/&lt;/a&gt;        :     The Hottest Private Tracker On The Net!!!\n &lt;a href=&quot;\nhttp://www.torrentday.com&quot; rel=&quot;nofollow&quot; target=&quot;_NEW&quot;&gt;\nhttp://www.torrentday.com&lt;/a&gt;          :     Once &amp; For all ;)\n\n\n               www . TorrentDay . Com \n\n(((((((((((((= Enjoy No RAR releases =))))))))))))))))))))\n\n\n...................................NFO:....................................\n\n.[img]http://img521.imageshack.us/img521/1738/fneu.jpg[/img]\n\n[color=blue][size=5][b]F 2010 BDRip XVID AC3 HQ Hive-CM8[/b][/size][/color]\n\n\n\n[b]Thx Hive\n\nCM8 Doing It Right The First Time :D\n\nWhy download a touched up rip of a rip BRrip\nGet the real deal BDRip\nEnjoy\n\nSource UK Bluray\n\nVideo: 720x400 @bitrate 2200 2pass\nAudio: DTS to AC3 5.1 @448\nSample: yes included\nSubs: yes in srt /subs[/b]\n &lt;a href=&quot;\nhttp://www.imdb.com/title/tt1486670/&quot; rel=&quot;nofollow&quot; target=&quot;_NEW&quot;&gt;\nhttp://www.imdb.com/title/tt1486670/&lt;/a&gt;\n\n\nGeneral\nComplete name                    : F.2010.BDRip.XVID.AC3.HQ.Hive-CM8.avi\nFormat                           : AVI\nFormat/Info                      : Audio Video Interleave\nFile size                        : 1.42 GiB\nDuration                         : 1h 15mn\nOverall bit rate                 : 2 706 Kbps\nWriting application              : Nandub v1.0rc2\nWriting library                  : Nandub build 1853/release\n\nVideo\nID                               : 0\nFormat                           : MPEG-4 Visual\nFormat profile                   : Advanced Simple@L5\nFormat settings, BVOP            : Yes\nFormat settings, QPel            : Yes\nFormat settings, GMC             : No warppoints\nFormat settings, Matrix          : Default (H.263)\nMuxing mode                      : Packed bitstream\nCodec ID                         : XVID\nCodec ID/Hint                    : XviD\nDuration                         : 1h 15mn\nBit rate                         : 2 248 Kbps\nWidth                            : 720 pixels\nHeight                           : 400 pixels\nDisplay aspect ratio             : 16:9\nFrame rate                       : 25.000 fps\nColor space                      : YUV\nChroma subsampling               : 4:2:0\nBit depth                        : 8 bits\nScan type                        : Progressive\nBits/(Pixel*Frame)               : 0.312\nStream size                      : 1.18 GiB (83%)\nWriting library                  : XviD 1.2.1 (UTC 2008-12-04)\n\nAudio\nID                               : 1\nFormat                           : AC-3\nFormat/Info                      : Audio Coding 3\nMode extension                   : CM (complete main)\nCodec ID                         : 2000\nDuration                         : 1h 15mn\nBit rate mode                    : Constant\nBit rate                         : 448 Kbps\nChannel(s)                       : 6 channels\nChannel positions                : Front: L C R, Side: L R, LFE\nSampling rate                    : 48.0 KHz\nBit depth                        : 16 bits\nStream size                      : 242 MiB (17%)\nAlignment                        : Split accross interleaves\nInterleave, duration             : 40 ms (1.00 video frame)\nInterleave, preload duration     : 500 ms\n\n\n\n\nDavid Schofield ... Robert Anderson\nEliza Bennett ... Kate Anderson\nRuth Gemmell ... Sarah Balham\nJuliet Aubrey ... Helen Anderson\nEmma Cleasby ... Lucy\nFinlay Robertson ... James\nRoxanne McKee ... Nicky\nTom Mannion ... Gary\nMax Fowler ... Jake Eaves\nMike Burnside ... Douglas\nChristopher Adamson ... Janitor\nJamie Kenna ... Brian Stanton\nTina Barnes ... Policewoman\nAlexander Ellis ... Policeman\nIan Cullen ... Maths Teacher\n\n\nA group of teachers must defend themselves from a gang of\nmurderous kids when their school comes under siege after hours.  \n\n\n\n\n[img]http://img203.imageshack.us/img203/4258/28952747.png[/img]\n[img]http://img819.imageshack.us/img819/667/ffffffm.png[/img]\n[img]http://img80.imageshack.us/img80/2994/65758469.png[/img]\n[img]http://img220.imageshack.us/img220/6438/fffnq.png[/img]\n[img]http://img705.imageshack.us/img705/6280/ffffjw.png[/img]\n[img]http://img834.imageshack.us/img834/6466/fffffm.png[/img]\n\n\n\n\n\nGreetz\n\niNK,LUSi,,MAGNET,CLASSiFiED,THC,LEGi0N,IMAGiNE,ViSiON,WBZ,FLAWL3SS,NOVA\nRapeseed,D2U,SAFC,goldadvance,MEMORY100,KaN1vE,Unevano,Pinnz,Wayne,Mr Hive\nand all P2P groups \nGreat Work Guys :D","torrent":{"xt":"urn:btih:f0ad8f6d3018e593291bd4c3c090f25b650b8ff5","amp;dn":"F.2010.BDRip.XVID.AC3.HQ.Hive-CM8","amp;tr":["udp%3A%2F%2Ftracker.openbittorrent.com%3A80","udp%3A%2F%2Fopen.demonii.com%3A1337","udp%3A%2F%2Ftracker.coppersurfer.tk%3A6969","udp%3A%2F%2Fexodus.desync.com%3A6969"],"infoHash":"f0ad8f6d3018e593291bd4c3c090f25b650b8ff5","infoHashBuffer":{"type":"Buffer","data":[240,173,143,109,48,24,229,147,41,27,212,195,192,144,242,91,101,11,143,245]},"announce":[],"urlList":[]}}